<svg xmlns="http://www.w3.org/2000/svg" xmlns:xlink="http://www.w3.org/1999/xlink" width="400" zoomAndPan="magnify" viewBox="0 0 300 299.999988" height="400" preserveAspectRatio="xMidYMid meet" version="1.0"><path fill="#231f20" d="M -25.261719 257.9375 C -26.433594 257.953125 -27.558594 257.726562 -28.636719 257.265625 C -29.714844 256.804688 -30.652344 256.144531 -31.449219 255.285156 C -31.863281 254.875 -32.234375 254.425781 -32.558594 253.941406 C -32.886719 253.460938 -33.160156 252.949219 -33.382812 252.410156 C -33.609375 251.871094 -33.777344 251.316406 -33.890625 250.742188 C -34.007812 250.171875 -34.0625 249.59375 -34.0625 249.011719 C -34.0625 248.425781 -34.007812 247.847656 -33.890625 247.277344 C -33.777344 246.703125 -33.609375 246.148438 -33.382812 245.609375 C -33.160156 245.070312 -32.886719 244.558594 -32.558594 244.078125 C -32.234375 243.59375 -31.863281 243.144531 -31.449219 242.734375 L 77.273438 136.664062 C 77.683594 136.261719 78.128906 135.902344 78.605469 135.589844 C 79.085938 135.273438 79.589844 135.007812 80.121094 134.792969 C 80.648438 134.574219 81.195312 134.410156 81.757812 134.300781 C 82.320312 134.191406 82.886719 134.136719 83.460938 134.136719 C 84.035156 134.136719 84.601562 134.191406 85.164062 134.300781 C 85.726562 134.410156 86.273438 134.574219 86.804688 134.792969 C 87.332031 135.007812 87.839844 135.273438 88.316406 135.589844 C 88.796875 135.902344 89.238281 136.261719 89.648438 136.664062 L 131.546875 177.855469 L 234.964844 82.742188 C 235.375 82.375 235.816406 82.050781 236.285156 81.765625 C 236.753906 81.476562 237.246094 81.238281 237.761719 81.039062 C 238.273438 80.84375 238.800781 80.695312 239.34375 80.597656 C 239.882812 80.496094 240.425781 80.445312 240.976562 80.445312 C 241.527344 80.445312 242.074219 80.496094 242.613281 80.597656 C 243.152344 80.695312 243.679688 80.84375 244.195312 81.039062 C 244.707031 81.238281 245.199219 81.476562 245.667969 81.765625 C 246.140625 82.050781 246.578125 82.375 246.988281 82.742188 L 333.257812 162.828125 C 333.640625 163.230469 333.976562 163.667969 334.273438 164.136719 C 334.570312 164.605469 334.820312 165.097656 335.023438 165.613281 C 335.230469 166.132812 335.382812 166.660156 335.488281 167.207031 C 335.589844 167.75 335.644531 168.300781 335.644531 168.855469 C 335.644531 169.410156 335.59375 169.960938 335.492188 170.507812 C 335.386719 171.050781 335.234375 171.582031 335.03125 172.097656 C 334.828125 172.617188 334.582031 173.109375 334.285156 173.578125 C 333.988281 174.046875 333.652344 174.484375 333.273438 174.890625 C 332.894531 175.296875 332.480469 175.664062 332.035156 175.992188 C 331.585938 176.320312 331.113281 176.605469 330.613281 176.84375 C 330.113281 177.082031 329.59375 177.273438 329.058594 177.414062 C 328.519531 177.554688 327.976562 177.644531 327.421875 177.683594 C 326.867188 177.722656 326.316406 177.710938 325.765625 177.644531 C 325.214844 177.578125 324.671875 177.460938 324.144531 177.296875 C 323.617188 177.128906 323.105469 176.914062 322.617188 176.652344 C 322.128906 176.386719 321.667969 176.082031 321.238281 175.730469 L 241.507812 101.304688 L 137.910156 196.59375 C 137.5 196.972656 137.054688 197.308594 136.582031 197.605469 C 136.105469 197.902344 135.605469 198.152344 135.085938 198.355469 C 134.5625 198.558594 134.027344 198.710938 133.476562 198.8125 C 132.925781 198.917969 132.371094 198.96875 131.8125 198.96875 C 131.253906 198.96875 130.699219 198.917969 130.148438 198.8125 C 129.597656 198.710938 129.0625 198.558594 128.539062 198.355469 C 128.019531 198.152344 127.519531 197.902344 127.042969 197.605469 C 126.570312 197.308594 126.125 196.972656 125.714844 196.59375 L 83.992188 154.339844 L -18.542969 254.753906 C -19.375 255.753906 -20.378906 256.53125 -21.550781 257.085938 C -22.726562 257.644531 -23.960938 257.925781 -25.261719 257.9375 Z M -25.261719 257.9375 " fill-opacity="1" fill-rule="nonzero"/><path fill="#231f20" d="M 63.132812 97.59375 C 61.871094 97.597656 60.617188 97.542969 59.363281 97.425781 C 58.109375 97.308594 56.863281 97.128906 55.628906 96.886719 C 54.394531 96.648438 53.171875 96.347656 51.964844 95.984375 C 50.761719 95.625 49.574219 95.207031 48.410156 94.730469 C 47.246094 94.25 46.105469 93.71875 44.992188 93.128906 C 43.882812 92.539062 42.800781 91.898438 41.75 91.203125 C 40.703125 90.503906 39.691406 89.761719 38.714844 88.964844 C 37.738281 88.167969 36.804688 87.328125 35.910156 86.441406 C 35.019531 85.550781 34.171875 84.625 33.371094 83.652344 C 32.570312 82.683594 31.816406 81.675781 31.113281 80.628906 C 30.414062 79.585938 29.761719 78.507812 29.167969 77.398438 C 28.570312 76.289062 28.03125 75.15625 27.546875 73.992188 C 27.0625 72.832031 26.636719 71.648438 26.265625 70.445312 C 25.898438 69.238281 25.589844 68.019531 25.34375 66.785156 C 25.097656 65.554688 24.910156 64.308594 24.785156 63.058594 C 24.65625 61.804688 24.59375 60.546875 24.59375 59.289062 C 24.589844 58.03125 24.648438 56.773438 24.773438 55.523438 C 24.894531 54.269531 25.078125 53.023438 25.320312 51.789062 C 25.566406 50.554688 25.867188 49.335938 26.234375 48.128906 C 26.597656 46.925781 27.019531 45.742188 27.5 44.578125 C 27.980469 43.414062 28.519531 42.277344 29.113281 41.167969 C 29.703125 40.054688 30.351562 38.976562 31.050781 37.929688 C 31.75 36.882812 32.496094 35.871094 33.296875 34.898438 C 34.09375 33.925781 34.9375 32.996094 35.828125 32.105469 C 36.71875 31.214844 37.648438 30.371094 38.625 29.570312 C 39.597656 28.773438 40.605469 28.023438 41.652344 27.324219 C 42.699219 26.625 43.78125 25.980469 44.890625 25.386719 C 46 24.792969 47.136719 24.257812 48.300781 23.777344 C 49.464844 23.296875 50.648438 22.875 51.855469 22.507812 C 53.058594 22.144531 54.277344 21.839844 55.515625 21.597656 C 56.75 21.351562 57.992188 21.167969 59.246094 21.046875 C 60.5 20.925781 61.753906 20.867188 63.011719 20.867188 C 64.273438 20.871094 65.527344 20.933594 66.78125 21.058594 C 68.035156 21.183594 69.277344 21.371094 70.511719 21.621094 C 71.746094 21.867188 72.964844 22.175781 74.167969 22.542969 C 75.371094 22.910156 76.554688 23.335938 77.714844 23.820312 C 78.878906 24.308594 80.015625 24.847656 81.121094 25.441406 C 82.230469 26.039062 83.308594 26.6875 84.351562 27.390625 C 85.398438 28.09375 86.40625 28.84375 87.375 29.644531 C 88.347656 30.449219 89.277344 31.292969 90.164062 32.1875 C 91.050781 33.082031 91.894531 34.015625 92.6875 34.992188 C 93.484375 35.964844 94.230469 36.980469 94.925781 38.027344 C 95.621094 39.078125 96.261719 40.15625 96.851562 41.269531 C 97.441406 42.382812 97.976562 43.519531 98.453125 44.6875 C 98.929688 45.851562 99.347656 47.035156 99.710938 48.242188 C 100.070312 49.449219 100.371094 50.667969 100.609375 51.90625 C 100.851562 53.140625 101.03125 54.386719 101.148438 55.640625 C 101.265625 56.890625 101.324219 58.148438 101.316406 59.40625 C 101.3125 60.65625 101.246094 61.902344 101.117188 63.144531 C 100.988281 64.386719 100.800781 65.621094 100.554688 66.84375 C 100.304688 68.070312 100 69.277344 99.632812 70.472656 C 99.265625 71.667969 98.84375 72.839844 98.363281 73.992188 C 97.882812 75.144531 97.347656 76.273438 96.757812 77.371094 C 96.164062 78.472656 95.523438 79.542969 94.828125 80.582031 C 94.132812 81.617188 93.386719 82.621094 92.59375 83.585938 C 91.800781 84.550781 90.964844 85.472656 90.082031 86.355469 C 89.199219 87.242188 88.273438 88.078125 87.308594 88.871094 C 86.34375 89.664062 85.34375 90.410156 84.304688 91.101562 C 83.265625 91.796875 82.199219 92.441406 81.097656 93.03125 C 79.996094 93.621094 78.871094 94.160156 77.714844 94.640625 C 76.5625 95.121094 75.390625 95.542969 74.195312 95.910156 C 73 96.273438 71.792969 96.582031 70.570312 96.828125 C 69.34375 97.078125 68.109375 97.265625 66.867188 97.394531 C 65.625 97.519531 64.378906 97.585938 63.132812 97.59375 Z M 63.132812 38.722656 C 62.453125 38.71875 61.773438 38.746094 61.097656 38.804688 C 60.421875 38.867188 59.753906 38.960938 59.085938 39.085938 C 58.417969 39.214844 57.761719 39.375 57.109375 39.566406 C 56.457031 39.757812 55.816406 39.980469 55.1875 40.234375 C 54.558594 40.492188 53.945312 40.773438 53.34375 41.089844 C 52.742188 41.40625 52.160156 41.75 51.59375 42.121094 C 51.023438 42.496094 50.476562 42.894531 49.949219 43.320312 C 49.421875 43.75 48.917969 44.199219 48.433594 44.675781 C 47.949219 45.152344 47.492188 45.652344 47.058594 46.171875 C 46.621094 46.695312 46.214844 47.238281 45.835938 47.796875 C 45.453125 48.359375 45.101562 48.941406 44.777344 49.535156 C 44.453125 50.132812 44.160156 50.742188 43.894531 51.367188 C 43.632812 51.992188 43.398438 52.628906 43.199219 53.277344 C 42.996094 53.925781 42.828125 54.582031 42.691406 55.25 C 42.554688 55.914062 42.453125 56.582031 42.382812 57.257812 C 42.3125 57.933594 42.273438 58.609375 42.269531 59.289062 C 42.265625 59.96875 42.296875 60.644531 42.359375 61.320312 C 42.421875 61.996094 42.519531 62.667969 42.644531 63.332031 C 42.773438 64 42.9375 64.65625 43.128906 65.308594 C 43.324219 65.957031 43.550781 66.597656 43.804688 67.226562 C 44.0625 67.855469 44.347656 68.46875 44.664062 69.070312 C 44.984375 69.667969 45.328125 70.25 45.703125 70.816406 C 46.078125 71.382812 46.480469 71.929688 46.90625 72.457031 C 47.335938 72.984375 47.789062 73.488281 48.265625 73.96875 C 48.742188 74.449219 49.242188 74.910156 49.765625 75.339844 C 50.289062 75.773438 50.832031 76.179688 51.394531 76.558594 C 51.957031 76.9375 52.539062 77.289062 53.136719 77.609375 C 53.734375 77.933594 54.34375 78.226562 54.96875 78.488281 C 55.597656 78.75 56.234375 78.980469 56.882812 79.179688 C 57.53125 79.378906 58.1875 79.546875 58.855469 79.679688 C 59.519531 79.8125 60.1875 79.914062 60.863281 79.984375 C 61.539062 80.054688 62.214844 80.089844 62.894531 80.089844 C 63.574219 80.09375 64.25 80.0625 64.925781 79.996094 C 65.601562 79.929688 66.273438 79.832031 66.9375 79.703125 C 67.605469 79.574219 68.261719 79.410156 68.914062 79.214844 C 69.5625 79.019531 70.199219 78.792969 70.828125 78.53125 C 71.457031 78.273438 72.070312 77.984375 72.667969 77.667969 C 73.265625 77.347656 73.847656 77 74.414062 76.625 C 74.980469 76.25 75.523438 75.847656 76.050781 75.417969 C 76.574219 74.988281 77.078125 74.53125 77.558594 74.054688 C 78.039062 73.574219 78.496094 73.074219 78.925781 72.546875 C 79.359375 72.023438 79.761719 71.480469 80.140625 70.917969 C 80.515625 70.351562 80.867188 69.773438 81.1875 69.171875 C 81.507812 68.574219 81.796875 67.960938 82.058594 67.335938 C 82.316406 66.710938 82.546875 66.070312 82.742188 65.421875 C 82.941406 64.773438 83.105469 64.113281 83.238281 63.449219 C 83.371094 62.785156 83.472656 62.113281 83.539062 61.4375 C 83.605469 60.761719 83.636719 60.085938 83.636719 59.40625 C 83.636719 58.734375 83.605469 58.0625 83.539062 57.390625 C 83.472656 56.71875 83.375 56.054688 83.246094 55.394531 C 83.113281 54.734375 82.953125 54.078125 82.757812 53.433594 C 82.5625 52.789062 82.335938 52.15625 82.082031 51.53125 C 81.824219 50.910156 81.539062 50.300781 81.222656 49.707031 C 80.90625 49.109375 80.5625 48.53125 80.1875 47.96875 C 79.816406 47.410156 79.417969 46.867188 78.992188 46.34375 C 78.566406 45.824219 78.117188 45.320312 77.644531 44.84375 C 77.167969 44.363281 76.671875 43.910156 76.152344 43.480469 C 75.632812 43.050781 75.097656 42.648438 74.539062 42.269531 C 73.980469 41.894531 73.402344 41.542969 72.8125 41.222656 C 72.21875 40.902344 71.613281 40.609375 70.992188 40.347656 C 70.371094 40.085938 69.738281 39.855469 69.097656 39.65625 C 68.453125 39.457031 67.800781 39.285156 67.140625 39.152344 C 66.480469 39.015625 65.816406 38.910156 65.148438 38.839844 C 64.476562 38.765625 63.804688 38.730469 63.132812 38.722656 Z M 63.132812 38.722656 " fill-opacity="1" fill-rule="nonzero"/><path fill="#231f20" d="M 275.273438 339.4375 L 27.773438 339.4375 C 25.769531 339.417969 23.769531 339.304688 21.777344 339.09375 C 19.785156 338.882812 17.804688 338.574219 15.84375 338.171875 C 13.878906 337.765625 11.941406 337.269531 10.023438 336.675781 C 8.109375 336.085938 6.226562 335.402344 4.378906 334.625 C 2.53125 333.851562 0.722656 332.988281 -1.039062 332.039062 C -2.804688 331.085938 -4.519531 330.054688 -6.183594 328.9375 C -7.847656 327.820312 -9.453125 326.625 -11.003906 325.351562 C -12.550781 324.078125 -14.03125 322.734375 -15.449219 321.316406 C -16.867188 319.898438 -18.214844 318.414062 -19.484375 316.867188 C -20.757812 315.320312 -21.953125 313.710938 -23.070312 312.046875 C -24.1875 310.382812 -25.222656 308.667969 -26.171875 306.90625 C -27.125 305.140625 -27.988281 303.332031 -28.761719 301.484375 C -29.535156 299.636719 -30.21875 297.753906 -30.8125 295.839844 C -31.402344 293.925781 -31.902344 291.984375 -32.304688 290.023438 C -32.710938 288.058594 -33.015625 286.082031 -33.226562 284.085938 C -33.4375 282.09375 -33.554688 280.09375 -33.570312 278.089844 L -33.570312 30.589844 C -33.554688 28.585938 -33.4375 26.585938 -33.226562 24.59375 C -33.015625 22.601562 -32.710938 20.625 -32.304688 18.660156 C -31.902344 16.695312 -31.402344 14.757812 -30.8125 12.84375 C -30.21875 10.925781 -29.535156 9.046875 -28.761719 7.195312 C -27.988281 5.347656 -27.125 3.542969 -26.171875 1.777344 C -25.222656 0.0117188 -24.1875 -1.703125 -23.070312 -3.367188 C -21.953125 -5.03125 -20.757812 -6.636719 -19.484375 -8.183594 C -18.210938 -9.734375 -16.867188 -11.214844 -15.449219 -12.632812 C -14.03125 -14.050781 -12.550781 -15.394531 -11.003906 -16.667969 C -9.453125 -17.941406 -7.847656 -19.136719 -6.183594 -20.253906 C -4.519531 -21.371094 -2.804688 -22.40625 -1.039062 -23.355469 C 0.722656 -24.308594 2.53125 -25.167969 4.378906 -25.945312 C 6.226562 -26.71875 8.109375 -27.402344 10.023438 -27.996094 C 11.941406 -28.585938 13.878906 -29.085938 15.84375 -29.488281 C 17.804688 -29.890625 19.785156 -30.199219 21.777344 -30.410156 C 23.769531 -30.621094 25.769531 -30.738281 27.773438 -30.753906 L 275.273438 -30.753906 C 277.300781 -30.753906 279.320312 -30.652344 281.339844 -30.457031 C 283.355469 -30.257812 285.359375 -29.960938 287.34375 -29.566406 C 289.332031 -29.167969 291.296875 -28.675781 293.234375 -28.089844 C 295.175781 -27.5 297.082031 -26.820312 298.953125 -26.042969 C 300.824219 -25.269531 302.65625 -24.402344 304.441406 -23.449219 C 306.230469 -22.492188 307.964844 -21.453125 309.648438 -20.324219 C 311.335938 -19.199219 312.960938 -17.996094 314.527344 -16.707031 C 316.09375 -15.421875 317.59375 -14.0625 319.027344 -12.628906 C 320.460938 -11.199219 321.816406 -9.699219 323.105469 -8.132812 C 324.390625 -6.566406 325.59375 -4.941406 326.722656 -3.253906 C 327.847656 -1.570312 328.886719 0.167969 329.84375 1.953125 C 330.796875 3.742188 331.664062 5.570312 332.4375 7.441406 C 333.214844 9.316406 333.894531 11.222656 334.484375 13.160156 C 335.074219 15.097656 335.566406 17.0625 335.960938 19.050781 C 336.355469 21.039062 336.652344 23.039062 336.851562 25.054688 C 337.050781 27.074219 337.148438 29.09375 337.148438 31.121094 L 337.148438 278.089844 C 337.132812 280.105469 337.015625 282.117188 336.800781 284.121094 C 336.589844 286.125 336.277344 288.113281 335.871094 290.085938 C 335.460938 292.0625 334.957031 294.011719 334.359375 295.933594 C 333.761719 297.859375 333.070312 299.75 332.289062 301.605469 C 331.503906 303.464844 330.632812 305.277344 329.671875 307.050781 C 328.710938 308.820312 327.667969 310.542969 326.539062 312.210938 C 325.410156 313.882812 324.203125 315.492188 322.914062 317.042969 C 321.628906 318.597656 320.269531 320.082031 318.839844 321.5 C 317.410156 322.917969 315.910156 324.265625 314.347656 325.539062 C 312.785156 326.8125 311.164062 328.003906 309.484375 329.117188 C 307.804688 330.234375 306.078125 331.261719 304.296875 332.207031 C 302.515625 333.152344 300.695312 334.007812 298.832031 334.777344 C 296.96875 335.542969 295.070312 336.21875 293.140625 336.800781 C 291.210938 337.382812 289.257812 337.867188 287.28125 338.261719 C 285.304688 338.652344 283.3125 338.945312 281.304688 339.140625 C 279.300781 339.335938 277.289062 339.4375 275.273438 339.4375 Z M 27.773438 -13.074219 C 26.328125 -13.074219 24.882812 -13.003906 23.441406 -12.863281 C 22 -12.71875 20.570312 -12.507812 19.152344 -12.226562 C 17.730469 -11.945312 16.328125 -11.59375 14.945312 -11.171875 C 13.558594 -10.75 12.199219 -10.265625 10.859375 -9.710938 C 9.523438 -9.15625 8.214844 -8.539062 6.941406 -7.855469 C 5.664062 -7.175781 4.421875 -6.429688 3.21875 -5.625 C 2.015625 -4.824219 0.855469 -3.960938 -0.265625 -3.042969 C -1.382812 -2.125 -2.453125 -1.152344 -3.476562 -0.128906 C -4.5 0.894531 -5.472656 1.964844 -6.390625 3.082031 C -7.308594 4.203125 -8.167969 5.363281 -8.972656 6.566406 C -9.777344 7.769531 -10.523438 9.011719 -11.203125 10.289062 C -11.886719 11.5625 -12.503906 12.871094 -13.058594 14.207031 C -13.613281 15.546875 -14.097656 16.90625 -14.519531 18.292969 C -14.941406 19.675781 -15.289062 21.078125 -15.574219 22.5 C -15.855469 23.917969 -16.066406 25.347656 -16.210938 26.789062 C -16.351562 28.230469 -16.421875 29.675781 -16.421875 31.121094 L -16.421875 278.089844 C -16.421875 279.539062 -16.351562 280.984375 -16.210938 282.421875 C -16.066406 283.863281 -15.855469 285.292969 -15.574219 286.714844 C -15.289062 288.132812 -14.941406 289.535156 -14.519531 290.921875 C -14.097656 292.304688 -13.613281 293.667969 -13.058594 295.003906 C -12.503906 296.339844 -11.886719 297.648438 -11.203125 298.925781 C -10.523438 300.203125 -9.777344 301.441406 -8.972656 302.644531 C -8.171875 303.847656 -7.308594 305.011719 -6.390625 306.128906 C -5.472656 307.246094 -4.5 308.320312 -3.476562 309.34375 C -2.453125 310.367188 -1.382812 311.335938 -0.265625 312.253906 C 0.855469 313.171875 2.015625 314.035156 3.21875 314.839844 C 4.421875 315.644531 5.664062 316.386719 6.941406 317.070312 C 8.214844 317.75 9.523438 318.371094 10.859375 318.921875 C 12.199219 319.476562 13.558594 319.964844 14.945312 320.382812 C 16.328125 320.804688 17.730469 321.15625 19.152344 321.4375 C 20.570312 321.71875 22 321.933594 23.441406 322.074219 C 24.882812 322.214844 26.328125 322.289062 27.773438 322.289062 L 275.273438 322.289062 C 276.722656 322.289062 278.164062 322.214844 279.605469 322.074219 C 281.046875 321.933594 282.476562 321.71875 283.894531 321.4375 C 285.316406 321.15625 286.71875 320.804688 288.101562 320.382812 C 289.488281 319.964844 290.851562 319.476562 292.1875 318.921875 C 293.523438 318.371094 294.832031 317.75 296.109375 317.070312 C 297.382812 316.386719 298.625 315.644531 299.828125 314.839844 C 301.03125 314.035156 302.191406 313.171875 303.3125 312.253906 C 304.429688 311.335938 305.5 310.367188 306.527344 309.34375 C 307.550781 308.320312 308.519531 307.246094 309.4375 306.128906 C 310.355469 305.011719 311.21875 303.847656 312.023438 302.644531 C 312.824219 301.441406 313.570312 300.203125 314.25 298.925781 C 314.933594 297.648438 315.550781 296.339844 316.105469 295.003906 C 316.660156 293.667969 317.148438 292.304688 317.566406 290.921875 C 317.988281 289.535156 318.339844 288.132812 318.621094 286.714844 C 318.902344 285.292969 319.117188 283.863281 319.257812 282.421875 C 319.398438 280.984375 319.46875 279.539062 319.46875 278.089844 L 319.46875 30.589844 C 319.46875 29.144531 319.398438 27.699219 319.257812 26.257812 C 319.117188 24.820312 318.902344 23.386719 318.621094 21.96875 C 318.339844 20.550781 317.988281 19.148438 317.566406 17.761719 C 317.148438 16.375 316.660156 15.015625 316.105469 13.679688 C 315.550781 12.339844 314.933594 11.035156 314.25 9.757812 C 313.570312 8.480469 312.824219 7.242188 312.023438 6.035156 C 311.21875 4.832031 310.355469 3.671875 309.4375 2.554688 C 308.519531 1.433594 307.550781 0.363281 306.527344 -0.660156 C 305.5 -1.683594 304.429688 -2.65625 303.3125 -3.574219 C 302.191406 -4.492188 301.03125 -5.351562 299.828125 -6.15625 C 298.625 -6.960938 297.382812 -7.703125 296.109375 -8.386719 C 294.832031 -9.070312 293.523438 -9.6875 292.1875 -10.242188 C 290.851562 -10.796875 289.488281 -11.28125 288.101562 -11.703125 C 286.71875 -12.121094 285.316406 -12.472656 283.894531 -12.757812 C 282.476562 -13.039062 281.046875 -13.25 279.605469 -13.394531 C 278.164062 -13.535156 276.722656 -13.605469 275.273438 -13.605469 Z M 27.773438 -13.074219 " fill-opacity="1" fill-rule="nonzero"/></svg>