<svg xmlns="http://www.w3.org/2000/svg" xmlns:xlink="http://www.w3.org/1999/xlink" width="500" zoomAndPan="magnify" viewBox="0 0 375 74.999997" height="100" preserveAspectRatio="xMidYMid meet" version="1.0"><defs><g/></defs><g fill="#000000" fill-opacity="1"><g transform="translate(53.179691, 50.999995)"><g><path d="M 14.09375 -22.578125 C 17.570312 -22.578125 20.359375 -21.5625 22.453125 -19.53125 C 24.546875 -17.507812 25.59375 -14.742188 25.59375 -11.234375 C 25.59375 -7.722656 24.515625 -4.90625 22.359375 -2.78125 C 20.210938 -0.664062 17.316406 0.390625 13.671875 0.390625 C 10.023438 0.390625 7.1875 -0.632812 5.15625 -2.6875 C 3.132812 -4.75 2.125 -7.519531 2.125 -11 C 2.125 -14.476562 3.25 -17.273438 5.5 -19.390625 C 7.75 -21.515625 10.613281 -22.578125 14.09375 -22.578125 Z M 13.796875 -0.421875 C 17.160156 -0.421875 19.816406 -1.378906 21.765625 -3.296875 C 23.722656 -5.210938 24.703125 -7.851562 24.703125 -11.21875 C 24.703125 -14.582031 23.707031 -17.1875 21.71875 -19.03125 C 19.738281 -20.875 17.148438 -21.796875 13.953125 -21.796875 C 10.753906 -21.796875 8.132812 -20.820312 6.09375 -18.875 C 4.0625 -16.9375 3.046875 -14.300781 3.046875 -10.96875 C 3.046875 -7.632812 4 -5.039062 5.90625 -3.1875 C 7.8125 -1.34375 10.441406 -0.421875 13.796875 -0.421875 Z M 18.359375 -13.84375 C 17.972656 -14.9375 17.441406 -15.835938 16.765625 -16.546875 C 16.097656 -17.253906 15.378906 -17.609375 14.609375 -17.609375 C 13.835938 -17.609375 13.289062 -17.191406 12.96875 -16.359375 C 12.65625 -15.535156 12.5 -13.875 12.5 -11.375 C 12.5 -8.875 12.648438 -7.179688 12.953125 -6.296875 C 13.265625 -5.410156 13.859375 -4.96875 14.734375 -4.96875 C 15.609375 -4.96875 16.375 -5.332031 17.03125 -6.0625 C 17.695312 -6.800781 18.222656 -7.703125 18.609375 -8.765625 L 19.03125 -8.765625 L 18.890625 -4.546875 L 18.53125 -4.546875 C 18.476562 -4.585938 18.4375 -4.65625 18.40625 -4.75 C 18.375 -4.851562 18.34375 -4.925781 18.3125 -4.96875 C 18.21875 -5.039062 18.125 -5.078125 18.03125 -5.078125 L 16.796875 -4.6875 C 15.960938 -4.445312 15.179688 -4.328125 14.453125 -4.328125 C 12.242188 -4.328125 10.515625 -4.898438 9.265625 -6.046875 C 8.015625 -7.203125 7.390625 -8.921875 7.390625 -11.203125 C 7.390625 -13.484375 8.035156 -15.226562 9.328125 -16.4375 C 10.628906 -17.644531 12.382812 -18.25 14.59375 -18.25 C 15.226562 -18.25 15.929688 -18.128906 16.703125 -17.890625 C 17.472656 -17.648438 17.882812 -17.53125 17.9375 -17.53125 C 18 -17.53125 18.050781 -17.546875 18.09375 -17.578125 C 18.144531 -17.617188 18.179688 -17.65625 18.203125 -17.6875 C 18.234375 -17.726562 18.269531 -17.796875 18.3125 -17.890625 C 18.363281 -17.984375 18.398438 -18.039062 18.421875 -18.0625 L 18.75 -18.0625 L 18.84375 -13.84375 Z M 18.359375 -13.84375 "/></g></g></g><g fill="#000000" fill-opacity="1"><g transform="translate(87.291515, 50.999995)"><g><path d="M 1.25 -19.8125 C 1.25 -21.394531 1.929688 -22.691406 3.296875 -23.703125 C 4.671875 -24.722656 6.726562 -25.234375 9.46875 -25.234375 C 12.21875 -25.234375 14.332031 -24.722656 15.8125 -23.703125 C 17.289062 -22.691406 18.03125 -21.171875 18.03125 -19.140625 C 18.03125 -18.472656 17.96875 -17.875 17.84375 -17.34375 C 17.726562 -16.8125 17.460938 -16.253906 17.046875 -15.671875 C 16.640625 -15.085938 16.238281 -14.570312 15.84375 -14.125 C 15.457031 -13.675781 14.789062 -13.085938 13.84375 -12.359375 C 12.425781 -11.222656 10.9375 -10.09375 9.375 -8.96875 C 7.8125 -7.84375 6.898438 -7.1875 6.640625 -7 L 4.46875 -5.4375 L 13 -5.4375 C 14.625 -5.4375 15.78125 -5.789062 16.46875 -6.5 C 17.15625 -7.207031 17.640625 -8.316406 17.921875 -9.828125 L 18.53125 -9.828125 L 18.171875 0 L 1.484375 0 L 1.484375 -4.125 L 5.078125 -7.421875 C 7.515625 -9.640625 9.238281 -11.617188 10.25 -13.359375 C 11.269531 -15.097656 11.78125 -17.015625 11.78125 -19.109375 C 11.78125 -21.210938 11.554688 -22.644531 11.109375 -23.40625 C 10.660156 -24.175781 9.898438 -24.5625 8.828125 -24.5625 C 7.765625 -24.5625 7.019531 -24.289062 6.59375 -23.75 C 6.175781 -23.207031 5.96875 -22.6875 5.96875 -22.1875 C 5.96875 -21.6875 6.035156 -21.25 6.171875 -20.875 L 7.234375 -20.875 C 7.429688 -20.375 7.53125 -19.773438 7.53125 -19.078125 C 7.53125 -18.378906 7.234375 -17.773438 6.640625 -17.265625 C 6.046875 -16.753906 5.265625 -16.5 4.296875 -16.5 C 3.328125 -16.5 2.578125 -16.8125 2.046875 -17.4375 C 1.515625 -18.070312 1.25 -18.863281 1.25 -19.8125 Z M 1.25 -19.8125 "/></g></g></g><g fill="#000000" fill-opacity="1"><g transform="translate(106.885401, 50.999995)"><g><path d="M 11.578125 0.359375 C 8.140625 0.359375 5.523438 -0.800781 3.734375 -3.125 C 1.953125 -5.445312 1.0625 -8.6875 1.0625 -12.84375 C 1.0625 -17.007812 2.019531 -20.113281 3.9375 -22.15625 C 5.851562 -24.207031 8.472656 -25.234375 11.796875 -25.234375 C 15.128906 -25.234375 17.742188 -24.21875 19.640625 -22.1875 C 21.546875 -20.15625 22.5 -16.910156 22.5 -12.453125 C 22.5 -8.003906 21.539062 -4.753906 19.625 -2.703125 C 17.707031 -0.660156 15.023438 0.359375 11.578125 0.359375 Z M 8.34375 -13.78125 L 8.34375 -10.609375 C 8.34375 -8.316406 8.359375 -6.695312 8.390625 -5.75 C 8.429688 -4.800781 8.554688 -3.816406 8.765625 -2.796875 C 8.984375 -1.785156 9.328125 -1.128906 9.796875 -0.828125 C 10.273438 -0.535156 10.832031 -0.390625 11.46875 -0.390625 C 12.101562 -0.390625 12.582031 -0.425781 12.90625 -0.5 C 13.226562 -0.570312 13.507812 -0.71875 13.75 -0.9375 C 14 -1.164062 14.207031 -1.390625 14.375 -1.609375 C 14.539062 -1.835938 14.675781 -2.1875 14.78125 -2.65625 C 14.894531 -3.132812 14.984375 -3.570312 15.046875 -3.96875 C 15.117188 -4.375 15.164062 -4.96875 15.1875 -5.75 C 15.238281 -7.257812 15.265625 -8.785156 15.265625 -10.328125 L 15.265625 -13.453125 C 15.265625 -18.085938 15.09375 -21.085938 14.75 -22.453125 C 14.40625 -23.816406 13.425781 -24.5 11.8125 -24.5 C 10.207031 -24.5 9.226562 -23.800781 8.875 -22.40625 C 8.519531 -21.007812 8.34375 -18.132812 8.34375 -13.78125 Z M 8.34375 -13.78125 "/></g></g></g><g fill="#000000" fill-opacity="1"><g transform="translate(130.454861, 50.999995)"><g><path d="M 1.25 -19.8125 C 1.25 -21.394531 1.929688 -22.691406 3.296875 -23.703125 C 4.671875 -24.722656 6.726562 -25.234375 9.46875 -25.234375 C 12.21875 -25.234375 14.332031 -24.722656 15.8125 -23.703125 C 17.289062 -22.691406 18.03125 -21.171875 18.03125 -19.140625 C 18.03125 -18.472656 17.96875 -17.875 17.84375 -17.34375 C 17.726562 -16.8125 17.460938 -16.253906 17.046875 -15.671875 C 16.640625 -15.085938 16.238281 -14.570312 15.84375 -14.125 C 15.457031 -13.675781 14.789062 -13.085938 13.84375 -12.359375 C 12.425781 -11.222656 10.9375 -10.09375 9.375 -8.96875 C 7.8125 -7.84375 6.898438 -7.1875 6.640625 -7 L 4.46875 -5.4375 L 13 -5.4375 C 14.625 -5.4375 15.78125 -5.789062 16.46875 -6.5 C 17.15625 -7.207031 17.640625 -8.316406 17.921875 -9.828125 L 18.53125 -9.828125 L 18.171875 0 L 1.484375 0 L 1.484375 -4.125 L 5.078125 -7.421875 C 7.515625 -9.640625 9.238281 -11.617188 10.25 -13.359375 C 11.269531 -15.097656 11.78125 -17.015625 11.78125 -19.109375 C 11.78125 -21.210938 11.554688 -22.644531 11.109375 -23.40625 C 10.660156 -24.175781 9.898438 -24.5625 8.828125 -24.5625 C 7.765625 -24.5625 7.019531 -24.289062 6.59375 -23.75 C 6.175781 -23.207031 5.96875 -22.6875 5.96875 -22.1875 C 5.96875 -21.6875 6.035156 -21.25 6.171875 -20.875 L 7.234375 -20.875 C 7.429688 -20.375 7.53125 -19.773438 7.53125 -19.078125 C 7.53125 -18.378906 7.234375 -17.773438 6.640625 -17.265625 C 6.046875 -16.753906 5.265625 -16.5 4.296875 -16.5 C 3.328125 -16.5 2.578125 -16.8125 2.046875 -17.4375 C 1.515625 -18.070312 1.25 -18.863281 1.25 -19.8125 Z M 1.25 -19.8125 "/></g></g></g><g fill="#000000" fill-opacity="1"><g transform="translate(150.048747, 50.999995)"><g><path d="M 6.46875 0 L 6.46875 -0.671875 L 9.796875 -0.671875 L 9.796875 -6.359375 L 0.171875 -6.359375 L 0.171875 -7.03125 L 10.1875 -24.84375 L 16.328125 -24.84375 L 16.328125 -7.203125 L 19.84375 -7.203125 L 19.84375 -10.296875 L 20.515625 -10.296875 L 20.515625 -3.734375 L 19.84375 -3.734375 L 19.84375 -6.359375 L 16.328125 -6.359375 L 16.328125 -0.671875 L 18.78125 -0.671875 L 18.78125 0 Z M 1.3125 -7.203125 L 9.796875 -7.203125 L 9.796875 -22.15625 Z M 1.3125 -7.203125 "/></g></g></g><g fill="#000000" fill-opacity="1"><g transform="translate(177.842255, 50.999995)"><g><path d="M 4.96875 4.515625 L 4.96875 -28.21875 L 6.359375 -28.21875 L 6.359375 4.515625 Z M 4.96875 4.515625 "/></g></g></g><g fill="#000000" fill-opacity="1"><g transform="translate(189.16553, 50.999995)"><g><path d="M 4.96875 4.515625 L 4.96875 -28.21875 L 6.359375 -28.21875 L 6.359375 4.515625 Z M 4.96875 4.515625 "/></g></g></g><g fill="#000000" fill-opacity="1"><g transform="translate(206.878122, 50.999995)"><g><path d="M 0.75 -24.84375 L 13.53125 -24.84375 L 13.53125 -24.0625 L 9.765625 -24.0625 L 9.765625 -0.78125 L 11.046875 -0.78125 C 13.054688 -0.78125 14.65625 -1.394531 15.84375 -2.625 C 17.039062 -3.851562 18.253906 -5.75 19.484375 -8.3125 L 20.234375 -8.3125 L 19.5625 0 L 0.75 0 L 0.75 -0.78125 L 2.84375 -0.78125 L 2.84375 -24.0625 L 0.75 -24.0625 Z M 0.75 -24.84375 "/></g></g></g><g fill="#000000" fill-opacity="1"><g transform="translate(228.033839, 50.999995)"><g><path d="M 17.78125 -10.96875 L 17.78125 -13.59375 C 17.78125 -17.925781 17.566406 -20.660156 17.140625 -21.796875 C 16.671875 -23.097656 16 -23.90625 15.125 -24.21875 C 14.625 -24.40625 14.019531 -24.5 13.3125 -24.5 C 12.601562 -24.5 11.992188 -24.398438 11.484375 -24.203125 C 10.972656 -24.015625 10.550781 -23.679688 10.21875 -23.203125 C 9.894531 -22.734375 9.628906 -22.238281 9.421875 -21.71875 C 9.222656 -21.195312 9.066406 -20.46875 8.953125 -19.53125 C 8.804688 -18.15625 8.734375 -16.128906 8.734375 -13.453125 L 8.734375 -10.90625 C 8.734375 -8.007812 8.84375 -5.953125 9.0625 -4.734375 C 9.289062 -3.515625 9.570312 -2.644531 9.90625 -2.125 C 10.632812 -0.96875 11.769531 -0.390625 13.3125 -0.390625 C 15.175781 -0.390625 16.382812 -1.175781 16.9375 -2.75 C 17.5 -4.320312 17.78125 -7.0625 17.78125 -10.96875 Z M 13.234375 0.359375 C 9.285156 0.359375 6.332031 -0.710938 4.375 -2.859375 C 2.425781 -5.003906 1.453125 -8.101562 1.453125 -12.15625 C 1.453125 -16.21875 2.5 -19.410156 4.59375 -21.734375 C 6.6875 -24.066406 9.648438 -25.234375 13.484375 -25.234375 C 17.316406 -25.234375 20.207031 -24.128906 22.15625 -21.921875 C 24.113281 -19.710938 25.09375 -16.570312 25.09375 -12.5 C 25.09375 -8.425781 24.101562 -5.265625 22.125 -3.015625 C 20.15625 -0.765625 17.191406 0.359375 13.234375 0.359375 Z M 13.234375 0.359375 "/></g></g></g><g fill="#000000" fill-opacity="1"><g transform="translate(254.584977, 50.999995)"><g><path d="M 13.84375 -0.359375 C 15 -0.359375 15.738281 -0.570312 16.0625 -1 C 16.382812 -1.425781 16.546875 -2.144531 16.546875 -3.15625 L 16.546875 -10.046875 L 14.265625 -10.046875 L 14.265625 -10.828125 L 24.5 -10.828125 L 24.5 -10.046875 L 23.109375 -10.046875 L 23.109375 -0.03125 L 22.578125 -0.03125 C 22.148438 -0.625 21.546875 -0.921875 20.765625 -0.921875 C 20.429688 -0.921875 19.441406 -0.707031 17.796875 -0.28125 C 16.160156 0.144531 14.757812 0.359375 13.59375 0.359375 C 9.738281 0.359375 6.75 -0.679688 4.625 -2.765625 C 2.507812 -4.847656 1.453125 -7.976562 1.453125 -12.15625 C 1.453125 -16.332031 2.554688 -19.554688 4.765625 -21.828125 C 6.984375 -24.097656 9.960938 -25.234375 13.703125 -25.234375 C 15.148438 -25.234375 16.597656 -25.050781 18.046875 -24.6875 C 19.503906 -24.320312 20.347656 -24.140625 20.578125 -24.140625 C 20.816406 -24.140625 20.992188 -24.191406 21.109375 -24.296875 C 21.234375 -24.398438 21.367188 -24.582031 21.515625 -24.84375 L 21.90625 -24.84375 L 22.1875 -17.140625 L 21.546875 -17.140625 C 20.390625 -19.441406 19.222656 -21.25 18.046875 -22.5625 C 16.878906 -23.875 15.570312 -24.53125 14.125 -24.53125 C 10.507812 -24.53125 8.703125 -20.992188 8.703125 -13.921875 L 8.703125 -11.109375 C 8.703125 -7.554688 9.144531 -4.875 10.03125 -3.0625 C 10.914062 -1.257812 12.1875 -0.359375 13.84375 -0.359375 Z M 13.84375 -0.359375 "/></g></g></g><g fill="#000000" fill-opacity="1"><g transform="translate(280.248717, 50.999995)"><g><path d="M 17.78125 -10.96875 L 17.78125 -13.59375 C 17.78125 -17.925781 17.566406 -20.660156 17.140625 -21.796875 C 16.671875 -23.097656 16 -23.90625 15.125 -24.21875 C 14.625 -24.40625 14.019531 -24.5 13.3125 -24.5 C 12.601562 -24.5 11.992188 -24.398438 11.484375 -24.203125 C 10.972656 -24.015625 10.550781 -23.679688 10.21875 -23.203125 C 9.894531 -22.734375 9.628906 -22.238281 9.421875 -21.71875 C 9.222656 -21.195312 9.066406 -20.46875 8.953125 -19.53125 C 8.804688 -18.15625 8.734375 -16.128906 8.734375 -13.453125 L 8.734375 -10.90625 C 8.734375 -8.007812 8.84375 -5.953125 9.0625 -4.734375 C 9.289062 -3.515625 9.570312 -2.644531 9.90625 -2.125 C 10.632812 -0.96875 11.769531 -0.390625 13.3125 -0.390625 C 15.175781 -0.390625 16.382812 -1.175781 16.9375 -2.75 C 17.5 -4.320312 17.78125 -7.0625 17.78125 -10.96875 Z M 13.234375 0.359375 C 9.285156 0.359375 6.332031 -0.710938 4.375 -2.859375 C 2.425781 -5.003906 1.453125 -8.101562 1.453125 -12.15625 C 1.453125 -16.21875 2.5 -19.410156 4.59375 -21.734375 C 6.6875 -24.066406 9.648438 -25.234375 13.484375 -25.234375 C 17.316406 -25.234375 20.207031 -24.128906 22.15625 -21.921875 C 24.113281 -19.710938 25.09375 -16.570312 25.09375 -12.5 C 25.09375 -8.425781 24.101562 -5.265625 22.125 -3.015625 C 20.15625 -0.765625 17.191406 0.359375 13.234375 0.359375 Z M 13.234375 0.359375 "/></g></g></g></svg>