<svg xmlns="http://www.w3.org/2000/svg" xmlns:xlink="http://www.w3.org/1999/xlink" width="62" zoomAndPan="magnify" viewBox="0 0 46.5 46.5" height="62" preserveAspectRatio="xMidYMid meet" version="1.0"><defs><g/></defs><g fill="#000000" fill-opacity="1"><g transform="translate(5.597622, 29.75506)"><g><path d="M 0.265625 -8.65625 L 4.703125 -8.65625 L 4.703125 -8.375 L 3.40625 -8.375 L 3.40625 -0.265625 L 3.84375 -0.265625 C 4.539062 -0.265625 5.097656 -0.476562 5.515625 -0.90625 C 5.929688 -1.34375 6.351562 -2.003906 6.78125 -2.890625 L 7.046875 -2.890625 L 6.8125 0 L 0.265625 0 L 0.265625 -0.265625 L 0.984375 -0.265625 L 0.984375 -8.375 L 0.265625 -8.375 Z M 0.265625 -8.65625 "/></g></g></g><g fill="#000000" fill-opacity="1"><g transform="translate(12.963725, 29.75506)"><g><path d="M 6.1875 -3.8125 L 6.1875 -4.734375 C 6.1875 -6.242188 6.113281 -7.195312 5.96875 -7.59375 C 5.800781 -8.039062 5.566406 -8.316406 5.265625 -8.421875 C 5.085938 -8.492188 4.875 -8.53125 4.625 -8.53125 C 4.382812 -8.53125 4.175781 -8.492188 4 -8.421875 C 3.820312 -8.359375 3.675781 -8.242188 3.5625 -8.078125 C 3.445312 -7.910156 3.351562 -7.738281 3.28125 -7.5625 C 3.207031 -7.382812 3.148438 -7.128906 3.109375 -6.796875 C 3.066406 -6.316406 3.046875 -5.613281 3.046875 -4.6875 L 3.046875 -3.796875 C 3.046875 -2.785156 3.082031 -2.066406 3.15625 -1.640625 C 3.238281 -1.222656 3.335938 -0.921875 3.453125 -0.734375 C 3.703125 -0.335938 4.097656 -0.140625 4.640625 -0.140625 C 5.285156 -0.140625 5.703125 -0.410156 5.890625 -0.953125 C 6.085938 -1.503906 6.1875 -2.457031 6.1875 -3.8125 Z M 4.609375 0.125 C 3.234375 0.125 2.203125 -0.242188 1.515625 -0.984375 C 0.835938 -1.734375 0.5 -2.816406 0.5 -4.234375 C 0.5 -5.648438 0.863281 -6.757812 1.59375 -7.5625 C 2.320312 -8.375 3.351562 -8.78125 4.6875 -8.78125 C 6.03125 -8.78125 7.039062 -8.394531 7.71875 -7.625 C 8.394531 -6.851562 8.734375 -5.757812 8.734375 -4.34375 C 8.734375 -2.925781 8.390625 -1.828125 7.703125 -1.046875 C 7.015625 -0.265625 5.984375 0.125 4.609375 0.125 Z M 4.609375 0.125 "/></g></g></g><g fill="#000000" fill-opacity="1"><g transform="translate(22.20842, 29.75506)"><g><path d="M 4.8125 -0.125 C 5.21875 -0.125 5.476562 -0.195312 5.59375 -0.34375 C 5.707031 -0.488281 5.765625 -0.738281 5.765625 -1.09375 L 5.765625 -3.5 L 4.96875 -3.5 L 4.96875 -3.765625 L 8.53125 -3.765625 L 8.53125 -3.5 L 8.046875 -3.5 L 8.046875 -0.015625 L 7.859375 -0.015625 C 7.710938 -0.222656 7.503906 -0.328125 7.234375 -0.328125 C 7.117188 -0.328125 6.773438 -0.25 6.203125 -0.09375 C 5.628906 0.0507812 5.140625 0.125 4.734375 0.125 C 3.390625 0.125 2.347656 -0.234375 1.609375 -0.953125 C 0.867188 -1.679688 0.5 -2.773438 0.5 -4.234375 C 0.5 -5.691406 0.882812 -6.8125 1.65625 -7.59375 C 2.425781 -8.382812 3.460938 -8.78125 4.765625 -8.78125 C 5.273438 -8.78125 5.78125 -8.71875 6.28125 -8.59375 C 6.789062 -8.46875 7.085938 -8.40625 7.171875 -8.40625 C 7.253906 -8.40625 7.316406 -8.421875 7.359375 -8.453125 C 7.398438 -8.492188 7.441406 -8.5625 7.484375 -8.65625 L 7.625 -8.65625 L 7.71875 -5.96875 L 7.5 -5.96875 C 7.09375 -6.769531 6.6875 -7.398438 6.28125 -7.859375 C 5.875 -8.316406 5.421875 -8.546875 4.921875 -8.546875 C 3.660156 -8.546875 3.03125 -7.3125 3.03125 -4.84375 L 3.03125 -3.875 C 3.03125 -2.632812 3.179688 -1.695312 3.484375 -1.0625 C 3.796875 -0.4375 4.238281 -0.125 4.8125 -0.125 Z M 4.8125 -0.125 "/></g></g></g><g fill="#000000" fill-opacity="1"><g transform="translate(31.14414, 29.75506)"><g><path d="M 6.1875 -3.8125 L 6.1875 -4.734375 C 6.1875 -6.242188 6.113281 -7.195312 5.96875 -7.59375 C 5.800781 -8.039062 5.566406 -8.316406 5.265625 -8.421875 C 5.085938 -8.492188 4.875 -8.53125 4.625 -8.53125 C 4.382812 -8.53125 4.175781 -8.492188 4 -8.421875 C 3.820312 -8.359375 3.675781 -8.242188 3.5625 -8.078125 C 3.445312 -7.910156 3.351562 -7.738281 3.28125 -7.5625 C 3.207031 -7.382812 3.148438 -7.128906 3.109375 -6.796875 C 3.066406 -6.316406 3.046875 -5.613281 3.046875 -4.6875 L 3.046875 -3.796875 C 3.046875 -2.785156 3.082031 -2.066406 3.15625 -1.640625 C 3.238281 -1.222656 3.335938 -0.921875 3.453125 -0.734375 C 3.703125 -0.335938 4.097656 -0.140625 4.640625 -0.140625 C 5.285156 -0.140625 5.703125 -0.410156 5.890625 -0.953125 C 6.085938 -1.503906 6.1875 -2.457031 6.1875 -3.8125 Z M 4.609375 0.125 C 3.234375 0.125 2.203125 -0.242188 1.515625 -0.984375 C 0.835938 -1.734375 0.5 -2.816406 0.5 -4.234375 C 0.5 -5.648438 0.863281 -6.757812 1.59375 -7.5625 C 2.320312 -8.375 3.351562 -8.78125 4.6875 -8.78125 C 6.03125 -8.78125 7.039062 -8.394531 7.71875 -7.625 C 8.394531 -6.851562 8.734375 -5.757812 8.734375 -4.34375 C 8.734375 -2.925781 8.390625 -1.828125 7.703125 -1.046875 C 7.015625 -0.265625 5.984375 0.125 4.609375 0.125 Z M 4.609375 0.125 "/></g></g></g></svg>